<?xml version="1.0" encoding="UTF-8"?>
<svg width="28px" height="13px" viewBox="0 0 28 13" version="1.1" xmlns="http://www.w3.org/2000/svg" xmlns:xlink="http://www.w3.org/1999/xlink">
    <!-- Generator: Sketch 53 (72520) - https://sketchapp.com -->
    <title>Group 25</title>
    <desc>Created with Sketch.</desc>
    <g id="Page-1" stroke="none" stroke-width="1" fill="none" fill-rule="evenodd">
        <g id="Dashboard-/-02" transform="translate(-1689.000000, -907.000000)">
            <g id="Group-30" transform="translate(1647.000000, 906.000000)">
                <g id="Group-25" transform="translate(42.000000, 1.000000)">
                    <text id="0" font-family="Helvetica" font-size="10.8" font-weight="normal" fill="#919191">
                        <tspan x="2.7" y="10">0</tspan>
                    </text>
                    <text id="1" font-family="Helvetica" font-size="10.8" font-weight="normal" fill="#919191">
                        <tspan x="18.9" y="10">1</tspan>
                    </text>
                    <g id="zhengfanxianggensui" transform="translate(13.950000, 6.300000) rotate(90.000000) translate(-13.950000, -6.300000) translate(9.900000, 1.800000)" fill="#919191" fill-rule="nonzero">
                        <path d="M5.58417219,1.12060547 L7.53586093,3.03925781 C7.66549669,3.16494141 7.87380795,3.16494141 8.00254967,3.03837891 C8.13129139,2.91181641 8.13218543,2.70703125 8.00523179,2.57958984 L5.48761589,0.103710938 C5.39731788,0.0140625 5.26231788,-0.0149414062 5.14162252,0.0272460938 C5.02092715,0.0703125 4.93688742,0.177539063 4.92437086,0.30234375 C4.92258278,0.312890625 4.92258278,0.3234375 4.92258278,0.333984375 L4.92258278,8.66425781 C4.91900662,8.78291016 4.9815894,8.89365234 5.08529801,8.95341797 C5.18900662,9.01318359 5.31774834,9.01318359 5.42235099,8.95341797 C5.5260596,8.89277344 5.58864238,8.78203125 5.58506623,8.66425781 L5.58506623,1.12060547 L5.58417219,1.12060547 Z M2.60523179,8.8875 L0.0965562914,6.42128906 C-0.0321854305,6.29472656 -0.0321854305,6.08818359 0.0965562914,5.96162109 C0.225298013,5.83505859 0.435397351,5.83505859 0.564139073,5.96162109 L2.5131457,7.88027344 L2.5131457,0.334863281 C2.50956954,0.216210937 2.57215232,0.10546875 2.67586093,0.045703125 C2.77956954,-0.0140625 2.90831126,-0.0140625 3.01291391,0.045703125 C3.11662252,0.10546875 3.1792053,0.217089844 3.17562914,0.334863281 L3.17562914,8.66513672 C3.17652318,8.79873047 3.09337748,8.91914062 2.96731788,8.96835937 C2.84125828,9.01757812 2.69731788,8.98505859 2.60523179,8.8875 L2.60523179,8.8875 Z" id="Shape"></path>
                    </g>
                    <rect id="Rectangle" stroke="#979797" stroke-width="0.5" x="0.25" y="0.25" width="27.4" height="12.1"></rect>
                </g>
            </g>
        </g>
    </g>
</svg>