<?xml version="1.0" encoding="UTF-8"?>
<svg width="21px" height="21px" viewBox="0 0 21 21" version="1.1" xmlns="http://www.w3.org/2000/svg" xmlns:xlink="http://www.w3.org/1999/xlink">
    <!-- Generator: Sketch 53 (72520) - https://sketchapp.com -->
    <title>jiazai</title>
    <desc>Created with Sketch.</desc>
    <g id="Page-1" stroke="none" stroke-width="1" fill="none" fill-rule="evenodd">
        <g id="Dashboard-/-02" transform="translate(-1422.000000, -352.000000)" fill-rule="nonzero">
            <g id="jiazai" transform="translate(1422.000000, 352.000000)">
                <path d="M10.5,0.0102439024 C11.0266666,0.0102439024 11.4536142,0.437191518 11.4536142,0.963858093 L11.4536142,3.82470067 C11.4536142,4.35136724 11.0266666,4.77831486 10.5,4.77831486 C9.97333343,4.77831486 9.54638581,4.35136724 9.54638581,3.82470067 L9.54638581,0.963858093 C9.54638581,0.437191518 9.97333343,0.0102439024 10.5,0.0102439024 Z" id="Path" fill="#000000"></path>
                <path d="M15.744878,1.41539441 C16.2009614,1.67873533 16.3572217,2.26193651 16.0939008,2.7180314 L14.6634796,5.19599787 C14.494345,5.49347857 14.178783,5.67752843 13.8365832,5.67828072 C13.4943835,5.67903301 13.1780153,5.49637239 13.0075744,5.19963821 C12.8371336,4.90290404 12.8387537,4.53759442 13.0118198,4.24238368 L14.4422411,1.76441721 C14.705582,1.3083339 15.2887832,1.15207356 15.744878,1.41539441 Z" id="Path" fill="#191919"></path>
                <path d="M19.5846056,5.25512195 C19.8479264,5.71121684 19.6916661,6.29441801 19.2355828,6.55775894 L16.7576163,7.98818022 C16.3019223,8.24726794 15.722544,8.08997049 15.4604392,7.63600507 C15.1983345,7.18203964 15.3517853,6.60163069 15.8040021,6.33652044 L18.2819686,4.90609916 C18.7380635,4.6427783 19.3212647,4.79903865 19.5846056,5.25512195 L19.5846056,5.25512195 Z" id="Path" fill="#333333"></path>
                <path d="M20.9897561,10.5 C20.9897561,10.7529142 20.8892863,10.9954697 20.710449,11.1743071 C20.5316116,11.3531444 20.2890561,11.4536142 20.0361419,11.4536142 L17.1752993,11.4536142 C16.6486328,11.4536142 16.2216851,11.0266666 16.2216851,10.5 C16.2216851,9.97333343 16.6486328,9.54638581 17.1752993,9.54638581 L20.0361419,9.54638581 C20.5628085,9.54638581 20.9897561,9.97333343 20.9897561,10.5 L20.9897561,10.5 Z" id="Path" fill="#4C4C4C"></path>
                <path d="M19.5846056,15.744878 C19.3212647,16.2009614 18.7380635,16.3572217 18.2819686,16.0939008 L15.8040021,14.6634796 C15.5065214,14.494345 15.3224716,14.178783 15.3217193,13.8365832 C15.320967,13.4943835 15.5036276,13.1780153 15.8003618,13.0075744 C16.097096,12.8371336 16.4624056,12.8387537 16.7576163,13.0118198 L19.2355828,14.4422411 C19.6916661,14.705582 19.8479264,15.2887832 19.5846056,15.744878 Z" id="Path" fill="#666666"></path>
                <path d="M15.744878,19.5846056 C15.2887832,19.8479264 14.705582,19.6916661 14.4422411,19.2355828 L13.0118198,16.7576163 C12.7527321,16.3019223 12.9100295,15.722544 13.3639949,15.4604392 C13.8179604,15.1983345 14.3983693,15.3517853 14.6634796,15.8040021 L16.0939008,18.2819686 C16.3572217,18.7380635 16.2009614,19.3212647 15.744878,19.5846056 L15.744878,19.5846056 Z" id="Path" fill="#7F7F7F"></path>
                <path d="M10.5,20.9897561 C10.2470858,20.9897561 10.0045303,20.8892863 9.82569294,20.710449 C9.64685559,20.5316116 9.54638581,20.2890561 9.54638581,20.0361419 L9.54638581,17.1752993 C9.54638581,16.6486328 9.97333343,16.2216851 10.5,16.2216851 C11.0266666,16.2216851 11.4536142,16.6486328 11.4536142,17.1752993 L11.4536142,20.0361419 C11.4536142,20.5628085 11.0266666,20.9897561 10.5,20.9897561 L10.5,20.9897561 Z" id="Path" fill="#999999"></path>
                <path d="M5.25512195,19.5846056 C4.79903865,19.3212647 4.6427783,18.7380635 4.90609916,18.2819686 L6.33652044,15.8040021 C6.50565496,15.5065214 6.82121699,15.3224716 7.16341676,15.3217193 C7.50561653,15.320967 7.82198474,15.5036276 7.99242558,15.8003618 C8.16286642,16.097096 8.1612463,16.4624056 7.98818022,16.7576163 L6.55775894,19.2355828 C6.29441801,19.6916661 5.71121684,19.8479264 5.25512195,19.5846056 L5.25512195,19.5846056 Z" id="Path" fill="#ACACAC"></path>
                <path d="M1.41539441,15.744878 C1.15207356,15.2887832 1.3083339,14.705582 1.76441721,14.4422411 L4.24238368,13.0118198 C4.69807772,12.7527321 5.27745603,12.9100295 5.53956078,13.3639949 C5.80166553,13.8179604 5.6482147,14.3983693 5.19599787,14.6634796 L2.7180314,16.0939008 C2.26193651,16.3572217 1.67873533,16.2009614 1.41539441,15.744878 L1.41539441,15.744878 Z" id="Path" fill="#BFBFBF"></path>
                <path d="M0.0102439024,10.5 C0.0102439024,9.97333343 0.437191518,9.54638581 0.963858093,9.54638581 L3.82470067,9.54638581 C4.35136724,9.54638581 4.77831486,9.97333343 4.77831486,10.5 C4.77831486,11.0266666 4.35136724,11.4536142 3.82470067,11.4536142 L0.963858093,11.4536142 C0.437191518,11.4536142 0.0102439024,11.0266666 0.0102439024,10.5 Z" id="Path" fill="#CCCCCC"></path>
                <path d="M1.41539441,5.25512195 C1.67873533,4.79903865 2.26193651,4.6427783 2.7180314,4.90609916 L5.19599787,6.33652044 C5.49347857,6.50565496 5.67752843,6.82121699 5.67828072,7.16341676 C5.67903301,7.50561653 5.49637239,7.82198474 5.19963821,7.99242558 C4.90290404,8.16286642 4.53759442,8.1612463 4.24238368,7.98818022 L1.76441721,6.55775894 C1.3083339,6.29441801 1.15207356,5.71121684 1.41539441,5.25512195 Z" id="Path" fill="#E5E5E5"></path>
                <path d="M5.25512195,1.41539441 C5.71121684,1.15207356 6.29441801,1.3083339 6.55775894,1.76441721 L7.98818022,4.24238368 C8.24726794,4.69807772 8.08997049,5.27745603 7.63600507,5.53956078 C7.18203964,5.80166553 6.60163069,5.6482147 6.33652044,5.19599787 L4.90609916,2.7180314 C4.6427783,2.26193651 4.79903865,1.67873533 5.25512195,1.41539441 Z" id="Path" fill="#F2F2F2"></path>
            </g>
        </g>
    </g>
</svg>