<?xml version="1.0" encoding="UTF-8"?>
<svg width="37px" height="30px" viewBox="0 0 37 30" version="1.1" xmlns="http://www.w3.org/2000/svg" xmlns:xlink="http://www.w3.org/1999/xlink">
    <!-- Generator: Sketch 53 (72520) - https://sketchapp.com -->
    <title>Group 24</title>
    <desc>Created with Sketch.</desc>
    <g id="Page-1" stroke="none" stroke-width="1" fill="none" fill-rule="evenodd">
        <g id="Dashboard-/-02" transform="translate(-963.000000, -266.000000)">
            <g id="Group-18" transform="translate(825.000000, 266.000000)">
                <g id="Group-24" transform="translate(138.000000, 0.000000)">
                    <g id="next" transform="translate(18.500000, 15.000000) scale(-1, 1) translate(-18.500000, -15.000000) " fill="#F5F4F7">
                        <path d="M0,5.08909106 C0,2.27846368 2.27146299,0 5.07205983,0 L31.6831126,0 C34.4843339,0 36.7551724,2.27949919 36.7551724,5.08909106 L36.7551724,24.9109089 C36.7551724,27.7215363 34.4837094,30 31.6831126,30 L5.07205983,30 C2.27083854,30 0,27.7205008 0,24.9109089 L0,5.08909106 Z" id="bg"></path>
                    </g>
                    <g id="kaishi-2" transform="translate(14.000000, 8.000000)" fill="#A6A6A6" fill-rule="nonzero">
                        <path d="M9.55560835,6.23774892 C10.1452176,6.68239723 10.1452176,7.31760911 9.55560835,7.76225744 L1.06523459,13.7967703 C0.475625305,14.2414186 0.00393788071,13.9238127 0.00393788071,13.1615584 L0.00393788071,0.838447928 C0.00393788071,0.0761936738 0.475625317,-0.241412268 1.06523459,0.203236045 L9.55560835,6.23774892 Z" id="Path"></path>
                    </g>
                </g>
            </g>
        </g>
    </g>
</svg>