<?xml version="1.0" encoding="UTF-8"?>
<svg width="383px" height="37px" viewBox="0 0 383 37" version="1.1" xmlns="http://www.w3.org/2000/svg" xmlns:xlink="http://www.w3.org/1999/xlink">
    <!-- Generator: Sketch 53 (72520) - https://sketchapp.com -->
    <title>Group 15</title>
    <desc>Created with Sketch.</desc>
    <g id="Page-1" stroke="none" stroke-width="1" fill="none" fill-rule="evenodd">
        <g id="Dashboard-/-02" transform="translate(-26.000000, -14.000000)">
            <g id="Group-15" transform="translate(26.000000, 12.000000)">
                <text id="Visual-Analysis-for" font-family="PingFangSC-Semibold, PingFang SC" font-size="14" font-weight="500" letter-spacing="-0.3733333" fill="#FFFFFF">
                    <tspan x="88.4633326" y="36">Visual Analysis for Programming Learnin</tspan>
                    <tspan x="345.965334" y="36" letter-spacing="-0.3484444">g  / C</tspan>
                </text>
                <text id="C程序设计虚拟仿真实验" font-family="Phosphate-Inline, Phosphate" font-size="20" font-weight="normal" letter-spacing="2.0999999" fill="#FFFFFF">
                    <tspan x="97.3100005" y="19">C</tspan>
                    <tspan x="111.69" y="19" font-family="PingFangSC-Semibold, PingFang SC" font-size="18" font-weight="500">程序设计虚拟仿真实验</tspan>
                </text>
                <g id="chengxu-3" transform="translate(0.000000, 2.000000)" fill="#FFFFFF" fill-rule="nonzero">
                    <path d="M10.2417647,21.0237681 L10.2417647,22.7553623 L14.7135294,25.4226087 L14.7135294,23.6910145 L11.6917647,21.8886957 L14.7135294,20.0863768 L14.7135294,18.3547826 L10.2417647,21.022029 L10.2417647,21.0237681 Z M57.0670588,20.1327536 L60.0876471,21.933913 L57.0670588,23.7356522 L57.0670588,25.4672464 L61.5388235,22.8 L61.5388235,21.0684058 L57.0670588,18.4011594 L57.0670588,20.1327536 Z" id="Shape"></path>
                    <path d="M64.4994118,4.63304348 L7.28176471,4.63304348 C5.92058824,4.63304348 4.81294118,5.72463768 4.81294118,7.06608696 L4.81294118,33.5518841 C4.81294118,34.8933333 5.92058824,35.9849275 7.28176471,35.9849275 L64.4994118,35.9849275 C65.8605882,35.9849275 66.9682353,34.8933333 66.9682353,33.5518841 L66.9682353,7.06608696 C66.9682353,5.72463768 65.8605882,4.63304348 64.4994118,4.63304348 Z M7.33299813,33.6023188 C7.27676358,33.6023188 7.23117647,33.5736046 7.23117647,33.5381838 L7.23117647,8.60231884 L64.2311765,8.60231884 L64.2311765,33.5381838 C64.2299925,33.5732343 64.1838176,33.6023188 64.1281708,33.6023188 L7.33299813,33.6023188 Z" id="Shape"></path>
                    <path d="M2.50058824,2.39246377 L30.7182353,2.39246377 C30.7464706,2.39246377 30.7688235,2.41507246 30.7688235,2.44231884 L33.1870588,2.44231884 C33.1870588,1.10086957 32.0794118,0.00927536232 30.7182353,0.00927536232 L2.50058824,0.00927536232 C1.13941176,0.00927536232 0.0317647059,1.10086957 0.0317647059,2.44231884 L0.0317647059,28.9281159 C0.0317647059,30.2695652 1.13941176,31.3611594 2.50058824,31.3611594 L2.50058824,28.977971 C2.47264912,28.977971 2.45,28.9556501 2.45,28.9281159 L2.45,2.44231884 C2.45,2.41507246 2.47294118,2.39246377 2.50058824,2.39246377 Z" id="Path"></path>
                </g>
                <text id="VAPL" font-family="Phosphate-Inline, Phosphate" font-size="16" font-weight="normal" fill="#FFFFFF">
                    <tspan x="17.188" y="29">VAPL</tspan>
                </text>
                <path d="M77.9196566,34.7006109 C77.5247229,35.7381401 76.3564519,36.2617206 75.3102503,35.8700607 C74.2640487,35.4784008 73.7360917,34.3198142 74.1310254,33.282285 L83.6374135,8.24080448 C84.0560108,7.23908482 85.2004252,6.74728923 86.2236834,7.12939223 C87.2469416,7.51149522 87.7800564,8.62971034 87.4284733,9.65645429 L77.9196566,34.7006109 Z" id="Path" stroke="#FFFFFF" stroke-width="1.2" fill-rule="nonzero"></path>
            </g>
        </g>
    </g>
</svg>