<?xml version="1.0" encoding="UTF-8"?>
<svg width="86px" height="28px" viewBox="0 0 86 28" version="1.1" xmlns="http://www.w3.org/2000/svg" xmlns:xlink="http://www.w3.org/1999/xlink">
    <!-- Generator: Sketch 53 (72520) - https://sketchapp.com -->
    <title>Group 29</title>
    <desc>Created with Sketch.</desc>
    <g id="Page-1" stroke="none" stroke-width="1" fill="none" fill-rule="evenodd">
        <g id="Dashboard-/-02" transform="translate(-1211.000000, -124.000000)">
            <g id="Group-29" transform="translate(1211.000000, 125.000000)">
                <g id="Group" transform="translate(0.000000, 12.000000)" fill="#CDCDCD" fill-opacity="0.5">
                    <g id="Placeholder-tx">
                        <rect id="Rectangle-Copy-24" x="0" y="0" width="86" height="2" rx="1"></rect>
                    </g>
                </g>
                <text id="Variables" font-family="Helvetica" font-size="10" font-weight="normal" line-spacing="40" letter-spacing="-0.2666667" fill="#8B8B8B">
                    <tspan x="38" y="10">Variables</tspan>
                </text>
                <text id="Statements" font-family="Helvetica" font-size="10" font-weight="normal" line-spacing="40" letter-spacing="-0.2666667" fill="#8B8B8B">
                    <tspan x="38" y="26">Statements</tspan>
                </text>
                <rect id="Rectangle" fill="#B7B7B7" x="9.5" y="3" width="2" height="9"></rect>
                <rect id="Rectangle" fill="#B7B7B7" x="16.5" y="6" width="2" height="6"></rect>
                <rect id="Rectangle" fill="#B7B7B7" x="6" y="14" width="2" height="5"></rect>
                <rect id="Rectangle" fill="#B7B7B7" x="13" y="14" width="2" height="7"></rect>
                <rect id="Rectangle" fill="#B7B7B7" x="20" y="14" width="2" height="10"></rect>
                <g id="Group-18" transform="translate(33.000000, 0.000000)" stroke="#C3C3C3" stroke-linecap="round" stroke-linejoin="round">
                    <polyline id="next" stroke-width="0.99099" transform="translate(1.500000, 0.500000) scale(-1, 1) rotate(90.000000) translate(-1.500000, -0.500000) " points="2 -1 1 0.5 2 2"></polyline>
                    <path d="M1.5,0 L1.5,9.5" id="Path-7"></path>
                </g>
                <g id="Group-18" transform="translate(34.500000, 21.000000) scale(1, -1) translate(-34.500000, -21.000000) translate(33.000000, 16.000000)" stroke="#C3C3C3" stroke-linecap="round" stroke-linejoin="round">
                    <polyline id="next" stroke-width="0.99099" transform="translate(1.500000, 0.500000) scale(-1, 1) rotate(90.000000) translate(-1.500000, -0.500000) " points="2 -1 1 0.5 2 2"></polyline>
                    <path d="M1.5,0 L1.5,9.5" id="Path-7"></path>
                </g>
            </g>
        </g>
    </g>
</svg>