<?xml version="1.0" encoding="UTF-8"?>
<svg width="20px" height="20px" viewBox="0 0 20 20" version="1.1" xmlns="http://www.w3.org/2000/svg" xmlns:xlink="http://www.w3.org/1999/xlink">
    <!-- Generator: Sketch 53 (72520) - https://sketchapp.com -->
    <title>24px</title>
    <desc>Created with Sketch.</desc>
    <g id="Page-1" stroke="none" stroke-width="1" fill="none" fill-rule="evenodd">
        <g id="Dashboard-/-02" transform="translate(-1386.000000, -352.000000)" fill="#666666" fill-rule="nonzero">
            <g id="24px" transform="translate(1386.000000, 352.000000)">
                <path d="M6.00312255,13.3076881 C6.00312255,13.872705 5.55575682,14.3307416 5.00390321,14.3307416 L4.00468384,14.3307416 C1.97941643,14.3328594 0.272700316,12.7836827 0.0320426393,10.7247975 C-0.208615038,8.66591227 1.09285877,6.74814197 3.06142077,6.26089561 C3.46057131,3.06427522 5.89571035,0.534208272 9.01166819,0.0786924339 C12.127626,-0.376823404 15.1570262,1.35439314 16.4139891,4.30890953 C18.7972501,5.02813677 20.3021453,7.43117422 19.9459514,9.94879571 C19.5897574,12.4664172 17.480728,14.3334726 14.9960968,14.3307416 C14.4442432,14.3304591 13.9971011,13.8721934 13.9973771,13.3071766 C13.997653,12.7421598 14.4452424,12.2843521 14.997096,12.2846346 C16.4887084,12.2877881 17.7556544,11.1676159 17.9698699,9.65625228 C18.1840855,8.14488861 17.2803898,6.70220502 15.8494301,6.27112615 L14.956128,6.00104003 L14.5834192,5.12735232 C13.68619,3.01654414 11.5225613,1.77917705 9.29662754,2.10386579 C7.07069376,2.42855452 5.33065512,4.23533515 5.04487119,6.51870509 L4.87200625,7.91824228 L3.5330523,8.24971161 C2.55578082,8.5002391 1.91295137,9.45574935 2.03266287,10.4799104 C2.15237436,11.5040715 2.99727045,12.2772907 4.00468384,12.2846346 L5.00390321,12.2846346 C5.55575682,12.2846346 6.00312255,12.7426713 6.00312255,13.3076881 Z M13.5372365,15.4018787 C13.9273137,15.8013809 13.9273137,16.448974 13.5372365,16.8484763 L10.7054489,19.7457638 C10.3147541,20.1447547 9.68224824,20.1447547 9.29155347,19.7457638 L6.45976581,16.8484763 C6.08108984,16.4470516 6.08650564,15.8089675 6.47193816,15.4143413 C6.85737068,15.0197152 7.48058935,15.0141702 7.87266199,15.4018787 L9.00078063,16.556906 L9.00078063,8.19242063 C9.00078063,7.62740377 9.44814638,7.16936712 10,7.16936712 C10.5518536,7.16936712 10.9992194,7.62740377 10.9992194,8.19242063 L10.9992194,16.5538369 L12.1243404,15.4018787 C12.5145354,15.002497 13.1470415,15.002497 13.5372365,15.4018787 Z" id="Shape"></path>
            </g>
        </g>
    </g>
</svg>