<?xml version="1.0" encoding="UTF-8"?>
<svg width="22px" height="22px" viewBox="0 0 22 22" version="1.1" xmlns="http://www.w3.org/2000/svg" xmlns:xlink="http://www.w3.org/1999/xlink">
    <!-- Generator: Sketch 53 (72520) - https://sketchapp.com -->
    <title>kaishi</title>
    <desc>Created with Sketch.</desc>
    <g id="Page-1" stroke="none" stroke-width="1" fill="none" fill-rule="evenodd">
        <g id="Dashboard-/-02" transform="translate(-1293.000000, -351.000000)" fill="#666666" fill-rule="nonzero">
            <g id="kaishi" transform="translate(1293.000000, 351.000000)">
                <path d="M11,21.9864476 C7.07492026,21.9864477 3.447997,19.8924426 1.48545711,16.4932239 C-0.477082773,13.0940051 -0.477082773,8.90599489 1.48545711,5.50677613 C3.447997,2.10755738 7.07492026,0.0135523029 11,0.0135523614 C17.0676474,0.0135524518 21.9864475,4.93235258 21.9864475,11 C21.9864475,17.0676474 17.0676474,21.9864475 11,21.9864476 L11,21.9864476 Z M11,20.2517454 C16.1095979,20.2517454 20.2517454,16.1095979 20.2517454,11 C20.2517454,5.89040212 16.1095979,1.74825462 11,1.74825462 C5.89040212,1.74825462 1.74825462,5.89040212 1.74825462,11 C1.74825462,16.1095979 5.89040212,20.2517454 11,20.2517454 Z M8.0135522,8.01355236 L14.0135522,8.01355236 L14.0135522,14.0135524 L8.0135522,14.0135524 L8.0135522,8.01355236 Z" id="Shape"></path>
            </g>
        </g>
    </g>
</svg>